<svg width="206" height="73" viewBox="0 0 206 73" fill="none" xmlns="http://www.w3.org/2000/svg">
<path d="M55.24 55.12C54.6 55.12 54.28 55.52 54.28 56.32C54.28 56.72 54.4 57.08 54.64 57.4C54.96 57.8 55.44 58 56.08 58V57.16C56.08 56.76 56.04 56.32 55.96 55.84C55.88 55.36 55.64 55.12 55.24 55.12ZM4.72002 12.76C5.20002 13.16 5.84002 13.16 6.64002 12.76L9.28002 11.56L8.80002 10.48L8.20002 9.75997C8.04002 9.51998 7.76002 9.39998 7.36002 9.39998C6.80002 9.39998 6.28002 9.51998 5.80002 9.75997C5.40002 10.08 5.04002 10.4 4.72002 10.72C4.48002 11.12 4.32002 11.48 4.24002 11.8C4.24002 12.2 4.40002 12.52 4.72002 12.76ZM21.76 18.4L22.96 16.12L24.16 13.96L19.48 15.4C18.04 15.8 16.68 16.24 15.4 16.72L15.88 19.72C16.04 20.84 16.2 22.08 16.36 23.44L16.72 25.84L16.96 28.12C18.08 25.56 19.08 23.4 19.96 21.64C20.84 19.96 21.44 18.88 21.76 18.4ZM56.8 3.03998C57.76 2.31997 58.72 1.95997 59.68 1.95997C60.96 1.95997 62.08 2.35997 63.04 3.15997C64 3.87997 64.48 4.63998 64.48 5.43998C64.48 6.15998 64.4 6.43998 64.24 6.27998C64.16 6.11998 63.88 6.07998 63.4 6.15997C63 6.23998 62.4 6.67998 61.6 7.47998C60.88 8.19998 59.88 9.83998 58.6 12.4C57 15.52 55.52 18.64 54.16 21.76C52.88 24.8 51.72 27.92 50.68 31.12C49.72 34.32 48.92 37.64 48.28 41.08C47.72 44.44 47.4 48 47.32 51.76C47.32 53.04 47.4 54.56 47.56 56.32C47.72 58.08 47.96 59.76 48.28 61.36C48.68 62.96 49.16 64.32 49.72 65.44C50.28 66.56 51 67.12 51.88 67.12C52.36 67.12 52.76 66.92 53.08 66.52C53.4 66.2 53.64 65.8 53.8 65.32C54.04 64.92 54.2 64.52 54.28 64.12L54.4 63.52C53.04 62.96 52.04 62.12 51.4 61C50.84 59.96 50.56 58.88 50.56 57.76C50.56 56.24 51.04 54.84 52 53.56C52.96 52.28 54.24 51.64 55.84 51.64C57.28 51.64 58.32 51.96 58.96 52.6C59.68 53.32 60.16 54.04 60.4 54.76C60.72 55.56 60.88 56.28 60.88 56.92C60.96 57.64 61.12 58 61.36 58C62.08 58 63.6 57.76 65.92 57.28C68.24 56.88 70.84 56.4 73.72 55.84C76.6 55.28 79.52 54.72 82.48 54.16C85.52 53.6 88.16 53.2 90.4 52.96C91.2 52.88 91.96 52.8 92.68 52.72C93.48 52.72 94.24 52.72 94.96 52.72C98.48 52.72 101.32 53.2 103.48 54.16C105.72 55.2 106.84 57 106.84 59.56C106.84 61.4 106.32 63.04 105.28 64.48C104.32 66 103.4 66.76 102.52 66.76C102.04 66.76 101.8 66.56 101.8 66.16C101.8 66 101.8 65.84 101.8 65.68C101.88 65.6 101.92 65.48 101.92 65.32C101.92 63.8 100.88 62.76 98.8 62.2C96.72 61.64 94.12 61.36 91 61.36C87.88 61.36 84.48 61.56 80.8 61.96C77.12 62.44 73.72 62.92 70.6 63.4C66.84 63.96 63.16 64.6 59.56 65.32C59.16 67.16 58.52 68.56 57.64 69.52C56.76 70.56 55.84 71.32 54.88 71.8C54 72.28 53.16 72.56 52.36 72.64C51.56 72.8 51.08 72.88 50.92 72.88C47.96 72.88 45.56 72.08 43.72 70.48C41.88 68.96 40.4 67.08 39.28 64.84C38.24 62.68 37.52 60.36 37.12 57.88C36.72 55.48 36.52 53.36 36.52 51.52C36.52 49.6 36.56 48 36.64 46.72C36.8 45.36 36.96 44.2 37.12 43.24C37.36 42.28 37.6 41.4 37.84 40.6C38.08 39.8 38.36 38.96 38.68 38.08C38.92 36.56 39.68 34.36 40.96 31.48C41.04 31.32 41.36 30.48 41.92 28.96C42.56 27.44 43.36 25.6 44.32 23.44C45.28 21.2 46.4 18.8 47.68 16.24C48.56 14.4 49.52 12.64 50.56 10.96C49.84 10.08 48.32 9.59998 46 9.51997H44.2L42.28 9.75997C41.88 9.75997 41.28 9.83997 40.48 9.99998H40.36C39.32 10.16 38.2 10.32 37 10.48C35.8 10.72 34.52 11 33.16 11.32C30.92 15.8 28.88 20.4 27.04 25.12C25.28 29.84 23.88 34.72 22.84 39.76C22.76 40.16 22.68 40.48 22.6 40.72L22.48 41.68C22 44.48 21.76 47.04 21.76 49.36C21.84 51.76 22 53.8 22.24 55.48C22.48 57.24 22.72 58.68 22.96 59.8C23.28 61 23.44 61.8 23.44 62.2C23.44 62.68 23.28 63 22.96 63.16C22.56 63.32 22.16 63.36 21.76 63.28L21.4 63.16H21.04C20.96 63.16 20.92 63.12 20.92 63.04C19.16 62.4 17.68 61.52 16.48 60.4C15.28 59.36 14.32 58.16 13.6 56.8C12.88 55.52 12.36 54.16 12.04 52.72C11.72 51.36 11.56 50 11.56 48.64C11.56 46.8 11.76 44.8 12.16 42.64C12.64 40.48 13.2 38.36 13.84 36.28C13.84 34.04 13.68 31.84 13.36 29.68C13.04 27.6 12.64 25.72 12.16 24.04C11.76 22.36 11.36 21 10.96 19.96C10.64 19 10.48 18.48 10.48 18.4C7.12002 19.52 4.64002 19.72 3.04002 19C1.52002 18.28 0.560024 17.08 0.160024 15.4C-0.0799755 14.2 2.45273e-05 13.04 0.400024 11.92C0.800024 10.8 1.76002 9.59998 3.28002 8.31997C4.08002 7.59997 4.96002 7.03998 5.92002 6.63998C6.96002 6.31997 7.96002 6.15997 8.92002 6.15997C9.80002 6.23998 10.64 6.47998 11.44 6.87998C12.16 7.35997 12.72 8.07998 13.12 9.03998L13.24 9.39998L13.36 9.87998L13.48 10.12C14.44 9.71997 16.16 8.99997 18.64 7.95998C21.12 6.99998 23.96 5.95998 27.16 4.83997C30.36 3.79997 33.68 2.83998 37.12 1.95997C40.56 1.07997 43.68 0.519974 46.48 0.279975C48.08 0.0399758 49.6 0.0399758 51.04 0.279975C52.4 0.519974 53.68 0.959975 54.88 1.59998C55.6 1.99998 56.24 2.47998 56.8 3.03998Z" fill="#410E3D" fill-opacity="0.69"/>
<path d="M70.615 19.84C71.015 20 71.335 20.2 71.575 20.44C71.895 20.68 72.255 21 72.655 21.4C73.135 22.04 73.495 22.84 73.735 23.8C73.975 24.68 74.095 25.6 74.095 26.56C74.175 27.52 74.135 28.44 73.975 29.32C73.895 30.2 73.775 30.92 73.615 31.48C74.175 31.56 74.775 31.6 75.415 31.6C75.975 31.6 76.615 31.56 77.335 31.48C78.135 31.32 78.975 31.04 79.855 30.64C80.415 30.48 80.815 30.44 81.055 30.52C81.215 30.68 81.295 31.08 81.295 31.72C81.295 32.28 81.095 32.76 80.695 33.16C79.815 33.88 78.815 34.44 77.695 34.84C76.495 35.32 75.175 35.56 73.735 35.56C73.175 35.56 72.775 35.52 72.535 35.44L72.295 35.92C72.215 36.08 72.135 36.28 72.055 36.52C71.975 36.68 71.895 36.88 71.815 37.12C71.415 38.08 70.775 39.32 69.895 40.84C69.015 42.28 67.895 43.68 66.535 45.04C65.255 46.4 63.735 47.52 61.975 48.4C60.215 49.28 58.215 49.6 55.975 49.36C53.895 49.04 52.495 48.08 51.775 46.48C50.975 44.8 50.695 42.88 50.935 40.72C51.095 38.48 51.615 36.16 52.495 33.76C53.455 31.36 54.615 29.24 55.975 27.4C56.455 26.76 56.975 26.12 57.535 25.48C58.095 24.84 58.695 24.2 59.335 23.56C59.815 23.16 60.415 22.76 61.135 22.36C61.935 21.88 62.615 21.92 63.175 22.48C63.495 22.64 63.655 22.84 63.655 23.08C63.735 23.24 63.775 23.4 63.775 23.56C64.735 21.08 66.215 19.76 68.215 19.6H69.055C69.695 19.6 70.215 19.68 70.615 19.84ZM66.415 35.2C66.655 34.96 66.775 34.8 66.775 34.72C66.295 34.48 65.855 34.16 65.455 33.76C65.055 33.44 64.655 33.04 64.255 32.56C63.935 32 63.655 31.32 63.415 30.52C63.335 30.12 63.255 29.68 63.175 29.2C63.095 28.72 63.055 28.2 63.055 27.64C62.975 27.4 63.015 27.04 63.175 26.56C63.175 26.16 63.215 25.8 63.295 25.48C63.375 25.16 63.455 24.8 63.535 24.4C63.375 24.8 63.015 25.32 62.455 25.96C62.215 26.44 61.935 26.88 61.615 27.28C61.375 27.68 61.095 28.12 60.775 28.6C60.455 29.08 60.175 29.56 59.935 30.04C59.615 30.68 59.295 31.44 58.975 32.32C58.655 33.2 58.335 34.2 58.015 35.32C57.615 36.6 57.375 37.92 57.295 39.28C57.215 40.56 57.735 41.32 58.855 41.56C59.575 41.72 60.375 41.48 61.255 40.84C62.135 40.2 62.895 39.52 63.535 38.8C64.335 38.08 65.295 36.88 66.415 35.2ZM69.055 29.68C69.615 28.24 69.815 26.84 69.655 25.48C69.495 24.12 69.095 23.48 68.455 23.56C67.815 23.64 67.375 24.12 67.135 25C66.975 25.88 66.975 26.72 67.135 27.52C67.215 28.16 67.575 28.72 68.215 29.2C68.535 29.44 68.815 29.6 69.055 29.68Z" fill="#410E3D" fill-opacity="0.69"/>
<path d="M82.9849 39.16C82.5049 41.32 81.9849 43.84 81.4249 46.72V47.08C81.4249 47.64 81.3849 48 81.3049 48.16C81.0649 48.56 80.8249 48.84 80.5849 49C80.4249 49.08 80.3049 49.08 80.2249 49C78.2249 48.76 76.9049 48.44 76.2649 48.04C75.7049 47.56 75.2249 47.04 74.8249 46.48C74.4249 45.84 74.1449 45.16 73.9849 44.44C73.8249 43.64 73.7849 42.8 73.8649 41.92C74.1849 39.92 74.5449 38.08 74.9449 36.4C75.4249 34.64 75.9849 33 76.6249 31.48C77.2649 29.88 77.9449 28.32 78.6649 26.8C79.4649 25.2 80.3449 23.48 81.3049 21.64C81.7049 21 82.3049 20.76 83.1049 20.92C83.9849 21.08 84.5449 21.24 84.7849 21.4C84.9449 21.48 85.1449 21.6 85.3849 21.76C85.7049 21.84 86.0649 22.04 86.4649 22.36C86.7849 22.6 87.1849 23.08 87.6649 23.8C88.1449 24.52 88.1049 25.36 87.5449 26.32C87.1449 26.96 86.8249 27.6 86.5849 28.24C86.2649 28.8 85.7049 30.2 84.9049 32.44C86.6649 32.68 88.7049 32.84 91.0249 32.92H91.7449C92.9449 29.64 94.1049 27.04 95.2249 25.12C96.5049 22.88 97.2249 21.68 97.3849 21.52C97.7849 20.88 98.3849 20.64 99.1849 20.8C99.9849 20.96 100.545 21.12 100.865 21.28L101.465 21.64C101.705 21.72 102.025 21.92 102.425 22.24C102.825 22.48 103.265 22.96 103.745 23.68C104.225 24.4 104.185 25.24 103.625 26.2C103.225 26.84 102.785 27.64 102.305 28.6C101.825 29.56 101.345 30.6 100.865 31.72C100.545 32.36 100.265 33.04 100.025 33.76L99.3049 35.68C98.5049 38.08 98.1049 40.44 98.1049 42.76C98.1049 45 98.6249 46.8 99.6649 48.16L100.025 49C100.185 49.32 100.065 49.56 99.6649 49.72C99.1849 49.88 98.5849 50.08 97.8649 50.32C97.2249 50.48 96.4649 50.6 95.5849 50.68C94.7849 50.68 93.9049 50.6 92.9449 50.44C91.9849 50.28 91.0249 49.92 90.0649 49.36C89.6649 49.12 89.4249 48.84 89.3449 48.52C89.2649 48.2 89.1849 47.96 89.1049 47.8C88.9449 46.68 88.9449 44.96 89.1049 42.64C89.2649 41.28 89.5849 39.76 90.0649 38.08C88.2249 38.48 86.3849 38.8 84.5449 39.04C83.9849 39.12 83.4649 39.16 82.9849 39.16Z" fill="#410E3D" fill-opacity="0.69"/>
<path d="M119.834 19.84C120.234 20 120.554 20.2 120.794 20.44C121.114 20.68 121.474 21 121.874 21.4C122.354 22.04 122.714 22.84 122.954 23.8C123.194 24.68 123.314 25.6 123.314 26.56C123.394 27.52 123.354 28.44 123.194 29.32C123.114 30.2 122.994 30.92 122.834 31.48C123.394 31.56 123.994 31.6 124.634 31.6C125.194 31.6 125.834 31.56 126.554 31.48C127.354 31.32 128.194 31.04 129.074 30.64C129.634 30.48 130.034 30.44 130.274 30.52C130.434 30.68 130.514 31.08 130.514 31.72C130.514 32.28 130.314 32.76 129.914 33.16C129.034 33.88 128.034 34.44 126.914 34.84C125.714 35.32 124.394 35.56 122.954 35.56C122.394 35.56 121.994 35.52 121.754 35.44L121.514 35.92C121.434 36.08 121.354 36.28 121.274 36.52C121.194 36.68 121.114 36.88 121.034 37.12C120.634 38.08 119.994 39.32 119.114 40.84C118.234 42.28 117.114 43.68 115.754 45.04C114.474 46.4 112.954 47.52 111.194 48.4C109.434 49.28 107.434 49.6 105.194 49.36C103.114 49.04 101.714 48.08 100.994 46.48C100.194 44.8 99.9138 42.88 100.154 40.72C100.314 38.48 100.834 36.16 101.714 33.76C102.674 31.36 103.834 29.24 105.194 27.4C105.674 26.76 106.194 26.12 106.754 25.48C107.314 24.84 107.914 24.2 108.554 23.56C109.034 23.16 109.634 22.76 110.354 22.36C111.154 21.88 111.834 21.92 112.394 22.48C112.714 22.64 112.874 22.84 112.874 23.08C112.954 23.24 112.994 23.4 112.994 23.56C113.954 21.08 115.434 19.76 117.434 19.6H118.274C118.914 19.6 119.434 19.68 119.834 19.84ZM115.634 35.2C115.874 34.96 115.994 34.8 115.994 34.72C115.514 34.48 115.074 34.16 114.674 33.76C114.274 33.44 113.874 33.04 113.474 32.56C113.154 32 112.874 31.32 112.634 30.52C112.554 30.12 112.474 29.68 112.394 29.2C112.314 28.72 112.274 28.2 112.274 27.64C112.194 27.4 112.234 27.04 112.394 26.56C112.394 26.16 112.434 25.8 112.514 25.48C112.594 25.16 112.674 24.8 112.754 24.4C112.594 24.8 112.234 25.32 111.674 25.96C111.434 26.44 111.154 26.88 110.834 27.28C110.594 27.68 110.314 28.12 109.994 28.6C109.674 29.08 109.394 29.56 109.154 30.04C108.834 30.68 108.514 31.44 108.194 32.32C107.874 33.2 107.554 34.2 107.234 35.32C106.834 36.6 106.594 37.92 106.514 39.28C106.434 40.56 106.954 41.32 108.074 41.56C108.794 41.72 109.594 41.48 110.474 40.84C111.354 40.2 112.114 39.52 112.754 38.8C113.554 38.08 114.514 36.88 115.634 35.2ZM118.274 29.68C118.834 28.24 119.034 26.84 118.874 25.48C118.714 24.12 118.314 23.48 117.674 23.56C117.034 23.64 116.594 24.12 116.354 25C116.194 25.88 116.194 26.72 116.354 27.52C116.434 28.16 116.794 28.72 117.434 29.2C117.754 29.44 118.034 29.6 118.274 29.68Z" fill="#410E3D" fill-opacity="0.69"/>
<path d="M149.004 33.28L148.284 35.8C147.564 38.04 147.204 40.32 147.204 42.64C147.204 44.88 147.724 46.68 148.764 48.04L149.124 48.88C149.284 49.2 149.164 49.44 148.764 49.6C148.284 49.76 147.684 49.96 146.964 50.2C146.324 50.36 145.564 50.48 144.684 50.56C143.884 50.56 143.004 50.48 142.044 50.32C141.084 50.16 140.124 49.8 139.164 49.24C138.764 49 138.524 48.72 138.444 48.4C138.364 48.08 138.284 47.84 138.204 47.68C138.044 46.56 138.044 44.84 138.204 42.52C138.444 40.36 139.084 37.76 140.124 34.72C140.204 34.64 140.244 34.48 140.244 34.24C139.364 35.6 138.444 36.88 137.484 38.08C136.604 39.28 135.684 40.24 134.724 40.96C134.084 41.52 133.484 41.84 132.924 41.92C132.524 42.16 132.124 42.28 131.724 42.28C128.684 42.52 126.564 41.48 125.364 39.16C124.244 36.84 124.284 33.48 125.484 29.08C125.724 28.28 126.084 27.44 126.564 26.56C126.804 26.08 127.084 25.6 127.404 25.12C128.604 22.96 129.284 21.8 129.444 21.64C129.844 21 130.444 20.76 131.244 20.92C132.044 21.08 132.564 21.24 132.804 21.4C133.364 21.56 133.924 21.88 134.484 22.36C134.804 22.6 135.204 23.08 135.684 23.8C136.164 24.52 136.164 25.36 135.684 26.32C135.284 26.88 134.884 27.6 134.484 28.48C134.164 29.6 133.964 30.56 133.884 31.36C133.884 32.08 133.964 32.76 134.124 33.4C134.284 33.96 134.644 34.28 135.204 34.36C135.364 34.36 135.484 34.32 135.564 34.24C136.124 34 136.804 33.52 137.604 32.8C138.484 32 139.484 30.96 140.604 29.68C141.484 28.4 142.644 26.88 144.084 25.12C144.884 24 145.764 23 146.724 22.12H146.844C146.924 21.96 147.284 21.72 147.924 21.4C148.084 21.32 148.324 21.32 148.644 21.4C148.884 21.48 149.164 21.6 149.484 21.76C149.804 21.84 150.164 22.08 150.564 22.48C150.564 22.56 150.604 22.6 150.684 22.6L150.924 22.72L151.644 23.8V23.92C151.724 23.92 151.764 23.96 151.764 24.04C152.084 24.84 152.044 25.6 151.644 26.32C151.324 26.88 150.964 27.52 150.564 28.24L149.004 33.28Z" fill="#410E3D" fill-opacity="0.69"/>
<path d="M153.207 31.84C153.847 29.6 154.687 27.44 155.727 25.36C156.767 23.12 157.367 21.92 157.527 21.76C157.847 21.12 158.327 20.88 158.967 21.04C159.687 21.2 160.167 21.36 160.407 21.52L160.887 21.88C161.127 21.96 161.407 22.16 161.727 22.48C162.047 22.72 162.407 23.2 162.807 23.92C163.287 24.64 163.287 25.48 162.807 26.44C162.407 27.08 162.007 27.88 161.607 28.84C161.207 29.8 160.887 30.64 160.647 31.36C160.167 32.32 159.647 33.48 159.087 34.84C159.487 34.36 160.207 33.44 161.247 32.08C162.367 30.72 163.647 29.32 165.087 27.88C166.527 26.44 168.087 25.12 169.767 23.92C171.447 22.72 173.127 22.04 174.807 21.88C175.367 21.8 175.927 21.8 176.487 21.88C176.967 21.96 177.487 22.08 178.047 22.24C178.607 22.32 179.127 22.56 179.607 22.96C180.247 23.44 180.607 24.12 180.687 25C180.847 25.8 180.807 26.64 180.567 27.52C180.407 28.32 180.127 29.12 179.727 29.92C179.327 30.64 178.967 31.2 178.647 31.6C178.087 32.24 177.407 32.72 176.607 33.04C175.807 33.36 174.967 33.56 174.087 33.64C173.287 33.72 172.567 33.72 171.927 33.64C171.287 33.56 170.847 33.52 170.607 33.52C170.207 33.52 169.967 33.4 169.887 33.16C169.807 32.92 169.807 32.72 169.887 32.56C170.447 31.28 171.167 29.8 172.047 28.12C172.127 27.88 172.167 27.64 172.167 27.4C172.167 27 171.767 26.92 170.967 27.16L170.247 27.64C170.167 27.64 170.127 27.68 170.127 27.76C170.127 27.76 170.087 27.76 170.007 27.76C169.767 27.92 169.527 28.12 169.287 28.36C169.047 28.52 168.767 28.76 168.447 29.08C168.127 29.32 167.847 29.56 167.607 29.8C167.447 30.04 167.247 30.28 167.007 30.52C166.367 31.24 165.927 31.92 165.687 32.56C165.527 33.2 165.407 33.6 165.327 33.76V34C165.087 35.2 165.127 36.24 165.447 37.12C165.767 38 166.247 38.76 166.887 39.4C167.607 39.96 168.367 40.44 169.167 40.84C169.967 41.24 170.687 41.48 171.327 41.56C172.607 41.8 173.927 41.8 175.287 41.56C175.847 41.56 176.367 41.72 176.847 42.04C177.407 42.36 177.407 43.08 176.847 44.2C176.127 45.56 175.087 46.84 173.727 48.04C172.367 49.16 170.767 49.8 168.927 49.96H168.567C168.007 50.04 167.487 50.04 167.007 49.96C166.607 49.88 166.207 49.76 165.807 49.6L164.727 49.24C162.807 48.36 161.687 46.84 161.367 44.68C161.047 42.44 161.207 40.04 161.847 37.48C161.047 38.92 160.327 40.52 159.687 42.28C159.127 44.04 158.647 45.96 158.247 48.04C158.087 48.92 157.887 49.56 157.647 49.96C157.487 50.44 157.167 50.6 156.687 50.44C156.447 50.44 156.087 50.36 155.607 50.2C155.127 50.12 154.607 49.92 154.047 49.6C153.487 49.28 152.927 48.84 152.367 48.28C151.807 47.64 151.327 46.84 150.927 45.88C150.687 45.08 150.567 44.16 150.567 43.12C150.567 42.08 150.647 41.04 150.807 40C150.967 38.88 151.207 37.84 151.527 36.88C151.847 35.84 152.127 34.96 152.367 34.24C152.447 33.92 152.727 33.12 153.207 31.84Z" fill="#410E3D" fill-opacity="0.69"/>
<path d="M205.139 32.92C204.259 34.76 203.539 36.68 202.979 38.68C202.339 40.76 202.019 42.72 202.019 44.56C202.099 46.32 202.699 48 203.819 49.6L204.059 50.08C204.219 50.4 204.219 50.68 204.059 50.92C203.899 51.4 203.379 51.56 202.499 51.4C200.979 51.4 199.659 51.12 198.539 50.56C197.579 50.16 196.699 49.44 195.899 48.4C195.099 47.36 194.699 45.88 194.699 43.96C193.339 45.72 191.739 47.24 189.899 48.52C188.059 49.8 185.979 50.2 183.659 49.72C182.059 49.4 180.899 48.76 180.179 47.8C179.539 46.76 179.179 45.56 179.099 44.2C179.019 42.84 179.219 41.36 179.699 39.76C180.099 38.16 180.619 36.6 181.259 35.08C181.979 33.56 182.739 32.16 183.539 30.88C184.339 29.52 185.059 28.44 185.699 27.64C186.819 26.12 188.219 24.64 189.899 23.2C191.659 21.76 193.499 21.16 195.419 21.4C195.739 21.48 196.139 21.6 196.619 21.76C197.179 21.84 197.699 22.08 198.179 22.48C199.059 23.12 199.579 23.96 199.739 25C199.899 25.96 199.819 27 199.499 28.12V28.24H199.619C200.339 27.68 201.179 27.6 202.139 28C202.219 28.08 202.299 28.12 202.379 28.12C203.739 28.84 204.619 29.8 205.019 31C205.339 31.56 205.379 32.2 205.139 32.92ZM196.139 35.8C196.379 34.92 196.659 34.04 196.979 33.16C197.299 32.28 197.659 31.4 198.059 30.52C197.659 30.92 197.219 31.28 196.739 31.6C196.339 31.84 195.819 31.96 195.179 31.96C194.459 31.96 194.059 31.84 193.979 31.6C193.819 31.28 193.819 30.88 193.979 30.4C193.979 30.4 194.099 30.28 194.339 30.04L194.459 29.92C194.779 29.52 195.019 28.88 195.179 28C195.419 27.12 195.179 26.44 194.459 25.96C193.819 25.56 193.059 25.64 192.179 26.2C191.299 26.76 190.419 27.6 189.539 28.72C188.659 29.84 187.859 31.12 187.139 32.56C186.419 34 185.939 35.36 185.699 36.64C185.459 37.92 185.539 39.04 185.939 40C186.339 40.96 187.219 41.48 188.579 41.56C189.459 41.64 190.539 41.28 191.819 40.48C193.179 39.6 194.419 38.68 195.539 37.72C195.699 37.4 195.779 37.08 195.779 36.76C195.859 36.44 195.979 36.12 196.139 35.8Z" fill="#410E3D" fill-opacity="0.69"/>
</svg>
