<svg width="35" height="19" viewBox="0 0 35 19" fill="none" xmlns="http://www.w3.org/2000/svg">
<path d="M1.27962 12.5483L6.924 18.251C7.05958 18.3877 7.22089 18.4962 7.39862 18.5702C7.57635 18.6443 7.76699 18.6824 7.95953 18.6824C8.15206 18.6824 8.3427 18.6443 8.52043 18.5702C8.69816 18.4962 8.85947 18.3877 8.99506 18.251C9.13176 18.1154 9.24026 17.9541 9.31431 17.7763C9.38835 17.5986 9.42648 17.408 9.42648 17.2154C9.42648 17.0229 9.38835 16.8323 9.31431 16.6545C9.24026 16.4768 9.13176 16.3155 8.99506 16.1799L3.80282 10.9585H33.5415C33.9283 10.9585 34.2993 10.8048 34.5728 10.5313C34.8463 10.2578 35 9.88682 35 9.50001C35 9.11319 34.8463 8.74222 34.5728 8.4687C34.2993 8.19518 33.9283 8.04151 33.5415 8.04151H3.71531L8.99506 2.76177C9.25363 2.49052 9.39788 2.13015 9.39788 1.75541C9.39788 1.38066 9.25363 1.02029 8.99506 0.749047C8.85947 0.612345 8.69816 0.503841 8.52043 0.429795C8.3427 0.355749 8.15206 0.317627 7.95953 0.317627C7.76699 0.317627 7.57635 0.355749 7.39862 0.429795C7.22089 0.503841 7.05958 0.612345 6.924 0.749047L1.27962 6.36425C0.46024 7.18465 0 8.29675 0 9.45625C0 10.6158 0.46024 11.7279 1.27962 12.5483V12.5483Z" fill="#535353"/>
</svg>
