<svg width="35" height="19" viewBox="0 0 35 19" fill="none" xmlns="http://www.w3.org/2000/svg">
<path d="M33.7204 12.5483L28.076 18.251C27.9404 18.3877 27.7791 18.4962 27.6014 18.5702C27.4236 18.6443 27.233 18.6824 27.0405 18.6824C26.8479 18.6824 26.6573 18.6443 26.4796 18.5702C26.3018 18.4962 26.1405 18.3877 26.0049 18.251C25.8682 18.1154 25.7597 17.9541 25.6857 17.7763C25.6116 17.5986 25.5735 17.408 25.5735 17.2154C25.5735 17.0229 25.6116 16.8323 25.6857 16.6545C25.7597 16.4768 25.8682 16.3155 26.0049 16.1799L31.1972 10.9585H1.4585C1.07168 10.9585 0.700703 10.8048 0.427181 10.5313C0.153664 10.2578 0 9.88682 0 9.50001C0 9.11319 0.153664 8.74222 0.427181 8.4687C0.700703 8.19518 1.07168 8.04151 1.4585 8.04151H31.2847L26.0049 2.76177C25.7464 2.49052 25.6021 2.13015 25.6021 1.75541C25.6021 1.38066 25.7464 1.02029 26.0049 0.749047C26.1405 0.612345 26.3018 0.503841 26.4796 0.429795C26.6573 0.355749 26.8479 0.317627 27.0405 0.317627C27.233 0.317627 27.4236 0.355749 27.6014 0.429795C27.7791 0.503841 27.9404 0.612345 28.076 0.749047L33.7204 6.36425C34.5398 7.18465 35 8.29675 35 9.45625C35 10.6158 34.5398 11.7279 33.7204 12.5483Z" fill="#535353"/>
</svg>
